<svg xmlns="http://www.w3.org/2000/svg" xmlns:xlink="http://www.w3.org/1999/xlink" viewBox="0 0 674.89 519.31">
  <defs>
    <linearGradient id="Безымянный_градиент_56" data-name="Безымянный градиент 56" x1="293.29" y1="473.53" x2="222.29" y2="-4.47" gradientUnits="userSpaceOnUse">
      <stop offset="0" stop-color="#261f35"/>
      <stop offset="0.2" stop-color="#66174a"/>
      <stop offset="0.24" stop-color="#661d56"/>
      <stop offset="0.3" stop-color="#642b75"/>
      <stop offset="0.39" stop-color="#6243a7"/>
      <stop offset="0.48" stop-color="#605cdb"/>
      <stop offset="0.49" stop-color="#5957c8"/>
      <stop offset="0.53" stop-color="#4d4ea4"/>
      <stop offset="0.56" stop-color="#424686"/>
      <stop offset="0.6" stop-color="#3a3f6d"/>
      <stop offset="0.65" stop-color="#333a5a"/>
      <stop offset="0.7" stop-color="#2f374c"/>
      <stop offset="0.76" stop-color="#2c3544"/>
      <stop offset="0.88" stop-color="#2b3442"/>
    </linearGradient>
    <linearGradient id="Degradado_sin_nombre_61" data-name="Degradado sin nombre 61" x1="62.71" y1="242.46" x2="79.27" y2="214.34" gradientUnits="userSpaceOnUse">
      <stop offset="0" stop-color="#ff468d"/>
      <stop offset="1" stop-color="#5878c5"/>
    </linearGradient>
    <linearGradient id="Degradado_sin_nombre_24" data-name="Degradado sin nombre 24" x1="231.59" y1="399.94" x2="254.67" y2="360.74" gradientTransform="translate(164.14 -64.02) rotate(22.5)" gradientUnits="userSpaceOnUse">
      <stop offset="0" stop-color="#17c2ff"/>
      <stop offset="1" stop-color="#a4f69e"/>
    </linearGradient>
    <linearGradient id="Degradado_sin_nombre_74" data-name="Degradado sin nombre 74" x1="270.54" y1="81.5" x2="291.82" y2="45.36" gradientTransform="matrix(-0.71, -0.71, -0.71, 0.71, 524.57, 217.57)" gradientUnits="userSpaceOnUse">
      <stop offset="0" stop-color="#ff3b7e"/>
      <stop offset="1" stop-color="#ffc753"/>
    </linearGradient>
    <clipPath id="clip-path" transform="translate(78.48 31.7)">
      <path id="_Обтравочный_контур_" data-name="&lt;Обтравочный контур&gt;" d="M320.42,22.21C352.47,24.45,385,28.88,414.09,42s54.63,34.69,67.23,61.89,10.78,60.13-8.31,83c-15.44,18.5-42.06,32.26-43.14,55.81-.55,11.76,5.8,23,11.46,33.73,15.16,28.86,26.64,59.89,27.1,91.47S457.24,431.8,431.9,452.6s-65.38,27.74-96.31,12.45c-21.11-10.43-37.42-30.1-60.81-34.27-31.12-5.54-61.64,4.51-90.9,14.64-35.23,12.21-141.43-9.83-129.43-132.63C57.24,284.16,23.8,262.3,13.07,235c-15.38-39.13,9.5-83.59,48.38-103.4,18.86-9.62,40.43-14.58,59-24.73S205.9,14.2,320.42,22.21Z" style="fill: url(#Безымянный_градиент_56)"/>
    </clipPath>
    <clipPath id="clip-path-2" transform="translate(78.48 31.7)">
      <circle id="_Эллипс_" data-name="&lt;Эллипс&gt;" cx="70.89" cy="228.58" r="16.57" style="fill: url(#Degradado_sin_nombre_61)"/>
    </clipPath>
    <clipPath id="clip-path-3" transform="translate(78.48 31.7)">
      <circle id="_Эллипс_2" data-name="&lt;Эллипс&gt;" cx="242.99" cy="380.58" r="23.09" transform="translate(-127.15 121.96) rotate(-22.5)" style="fill: url(#Degradado_sin_nombre_24)"/>
    </clipPath>
    <clipPath id="clip-path-4" transform="translate(78.48 31.7)">
      <circle id="_Эллипс_3" data-name="&lt;Эллипс&gt;" cx="280.82" cy="63.85" r="21.28" transform="translate(-6.62 81.64) rotate(-16.35)" style="fill: url(#Degradado_sin_nombre_74)"/>
    </clipPath>
    <linearGradient id="Degradado_sin_nombre_74-3" x1="246.32" y1="74.49" x2="250.39" y2="67.57" gradientTransform="matrix(1, 0, 0, 1, 0, 0)" xlink:href="#Degradado_sin_nombre_74"/>
    <linearGradient id="Degradado_sin_nombre_74-4" x1="371.88" y1="130.35" x2="375.63" y2="123.99" gradientTransform="matrix(1, 0, 0, 1, 0, 0)" xlink:href="#Degradado_sin_nombre_74"/>
    <clipPath id="clip-path-5" transform="translate(78.48 31.7)">
      <path id="_Обтравочный_контур_2" data-name="&lt;Обтравочный контур&gt;" d="M135.49,140.7s17.67-37.28,37.3-39.77,36.24,11.26,37.83,13.9-3,8.45-5.19,8.9-28.11-3.07-28.11-3.07-7.94,36.56-22.7,41.92S135.49,140.7,135.49,140.7Z" style="fill: #6f8bcd"/>
    </clipPath>
    <clipPath id="clip-path-6" transform="translate(78.48 31.7)">
      <path id="_Обтравочный_контур_3" data-name="&lt;Обтравочный контур&gt;" d="M106.36,90.09s-27,29-5.36,68c25.26,45.66,77.83-1.45,77.83-1.45s-.24,25.91.26,29.31,9.07,1.21,10.82-1,12.91-41.78,5.54-50.82-50.6,8.31-50.6,8.31L130.48,94.63Z" style="fill: #ffd555"/>
    </clipPath>
    <clipPath id="clip-path-7" transform="translate(78.48 31.7)">
      <path id="_Обтравочный_контур_4" data-name="&lt;Обтравочный контур&gt;" d="M361.3,93.24s50.91-27.29,90,9.86c0,4.28-5.08,7.43-5.08,7.43S392,92.8,366.68,121C360.38,111.68,361.3,93.24,361.3,93.24Z" style="fill: #426c76"/>
    </clipPath>
    <clipPath id="clip-path-8" transform="translate(78.48 31.7)">
      <path id="_Обтравочный_контур_5" data-name="&lt;Обтравочный контур&gt;" d="M328.71,173.08c0-1.07-34.52-24.56,19.31-71.42C327.52,87.38,325.15,74.32,323.61,64,321.53,50,362,33.67,364.48,33.7s4.18,8.24,2.38,10-23.05,21.12-23.05,21.12,43.88,22.86,41.55,44c-1.43,13-9.33,16.14-13.6,20.79-11,12-13.56,48.23-13.56,48.23Z" style="fill: #a4f69e"/>
    </clipPath>
    <clipPath id="clip-path-9" transform="translate(78.48 31.7)">
      <path id="_Обтравочный_контур_6" data-name="&lt;Обтравочный контур&gt;" d="M159.39,296s-35.92-25.89-66.61,13.54a7.61,7.61,0,0,0,6.41,6.4s45.1-26.45,55.33,5.14" style="fill: #d14c62"/>
    </clipPath>
    <clipPath id="clip-path-10" transform="translate(78.48 31.7)">
      <path id="_Обтравочный_контур_7" data-name="&lt;Обтравочный контур&gt;" d="M152.89,361.09s-16,38.44-23,47.13c-8.53,10.53-33,34.72-35.36,36.32-5.07,3.37-13.45-3.64-12.77-8.22.31-2.13,26.93-33.64,28.22-36.67,2.87-6.69,11-46,11-46Z" style="fill: #963f67"/>
    </clipPath>
    <clipPath id="clip-path-11" transform="translate(78.48 31.7)">
      <path id="_Обтравочный_контур_8" data-name="&lt;Обтравочный контур&gt;" d="M159.39,296s-13.71,14-38,45.65c-9.4,12.24-16.8,43.72-16.8,43.72s-45.53-2.57-47.8-1-3.59,8.27-1.31,10.75,40.36,14.16,54.84,10.58C128.1,401.23,152,367.56,152,367.56s32.87-22.46,36.53-58.64A41,41,0,0,0,159.39,296Z" style="fill: #e34c62"/>
    </clipPath>
    <clipPath id="clip-path-12" transform="translate(78.48 31.7)">
      <path id="_Обтравочный_контур_9" data-name="&lt;Обтравочный контур&gt;" d="M146.51,329.94s21.52,22.83,37.61-3.77l3.73-1S186.33,348,166.24,351.4c-16.06,2.74-24.05-16.4-24.05-16.4" style="fill: #58539f"/>
    </clipPath>
    <clipPath id="clip-path-13" transform="translate(78.48 31.7)">
      <path id="_Обтравочный_контур_10" data-name="&lt;Обтравочный контур&gt;" d="M178.89,303.7s31.25,20.57,41.33-22.5c6.64-4.27,10.28,1.49,10.28,1.49s6.66,64.17-61.1,39.39" style="fill: #e34c62"/>
    </clipPath>
    <clipPath id="clip-path-14" transform="translate(78.48 31.7)">
      <path id="_Обтравочный_контур_11" data-name="&lt;Обтравочный контур&gt;" d="M164.56,298.12s-5.75-10.49-18.1-7.65S115,326.61,119.82,335.13s14.07,10.45,20.47,5.65S169.72,310.34,164.56,298.12Z" style="fill: #58539f"/>
    </clipPath>
    <clipPath id="clip-path-15" transform="translate(78.48 31.7)">
      <path id="_Обтравочный_контур_12" data-name="&lt;Обтравочный контур&gt;" d="M384.49,329.44s-9.49-28.88,20-49.09a9.29,9.29,0,0,0-8-6.61s-45.09,20.89-29.2,62.34" style="fill: #5e72af"/>
    </clipPath>
    <clipPath id="clip-path-16" transform="translate(78.48 31.7)">
      <path id="_Обтравочный_контур_13" data-name="&lt;Обтравочный контур&gt;" d="M318,350.09s-25.54,12.74-28.94,31.46c-3.8,21,28.13,36.62,28.13,36.62s5.93-1.62,5.35-7.54c-7.39-6.73-20.61-28.43,9.92-35" style="fill: #de77bb"/>
    </clipPath>
    <clipPath id="clip-path-17" transform="translate(78.48 31.7)">
      <path id="_Обтравочный_контур_14" data-name="&lt;Обтравочный контур&gt;" d="M384.49,329.44s-21.42-13.32-55.18,13c-.29-10.28-4.1-32-15.73-35.9-11.9-4-43,12.44-43.75,14s2.05,10.51,5.28,10.71,29.95-4.4,29.95-4.4-.86,39.18,10.81,49.68c10.69,9.6,21.8-1.05,21.8-1.05s33.33-22.84,53.82-23.94Z" style="fill: #5878c5"/>
    </clipPath>
    <clipPath id="clip-path-18" transform="translate(78.48 31.7)">
      <path id="_Обтравочный_контур_15" data-name="&lt;Обтравочный контур&gt;" d="M391.49,351.58s.31,22.73,28.55,35.56a10.16,10.16,0,0,1-3.23,9.39s-38.89-3.06-44.48-43.6" style="fill: #5878c5"/>
    </clipPath>
  </defs>
  <title>naprav</title>
  <g style="isolation: isolate">
    <g id="OBJECTS">
      <g>
        <g>
          <path id="_Обтравочный_контур_16" data-name="&lt;Обтравочный контур&gt;" d="M320.42,22.21C352.47,24.45,385,28.88,414.09,42s54.63,34.69,67.23,61.89,10.78,60.13-8.31,83c-15.44,18.5-42.06,32.26-43.14,55.81-.55,11.76,5.8,23,11.46,33.73,15.16,28.86,26.64,59.89,27.1,91.47S457.24,431.8,431.9,452.6s-65.38,27.74-96.31,12.45c-21.11-10.43-37.42-30.1-60.81-34.27-31.12-5.54-61.64,4.51-90.9,14.64-35.23,12.21-141.43-9.83-129.43-132.63C57.24,284.16,23.8,262.3,13.07,235c-15.38-39.13,9.5-83.59,48.38-103.4,18.86-9.62,40.43-14.58,59-24.73S205.9,14.2,320.42,22.21Z" transform="translate(78.48 31.7)" style="fill: url(#Безымянный_градиент_56)"/>
          <g style="clip-path: url(#clip-path)">
            <path d="M-28.25,271.88c-14.82,23.1-1.77,55.95,21,71.27s51.78,17.3,79.22,17C199.58,359,327.6,320.1,453.2,342.62c26.15,4.69,52.27,12.22,74.42,26.88,10.25,6.78,19.68,15.2,25.93,25.79,15.58,26.39,8,61.79-11.2,85.65-2,2.45-4.19,4.89-7.13,6-6.4,2.41-13.12-2.26-18.28-6.75-28.3-24.61-54-52.52-85.18-73.32C373,367.68,296.17,357.2,228.7,378.23c-43.24,13.49-81.94,38.81-124.76,53.59s-94.59,17.09-129.31-12c-30.13-25.25-39.46-72.18-21.29-107" transform="translate(78.48 31.7)" style="fill: #5878c5;opacity: 0.2;mix-blend-mode: multiply"/>
            <path d="M441.1,262.42c-41.77,15-87.38,15.74-131.51,11.15S222,259.21,178,253.6c-33-4.2-67.37-5.9-98.61,5.46S22.86,293.9-1.19,317c-11.9,11.42-27.72,23.83-43.14,18-6-2.29-10.74-7.11-14.71-12.19-26.8-34.28-25.59-87.09,1.77-120.92s77.71-46.25,118.15-30.19c34.93,13.87,60.31,45.24,94.44,61,35.63,16.44,77.88,14,114.69.43s69-37.37,98.61-63.07c20.31-17.59,39.78-36.27,61.75-51.74S477.26,90.5,504,87.6c39.61-4.31,94,19.43,92.41,66.56-.58,16.64-14,23.18-27.09,30.14-19.75,10.49-36.47,24.16-54.57,37.18C491.88,237.9,467.7,252.89,441.1,262.42Z" transform="translate(78.48 31.7)" style="fill: #5878c5;opacity: 0.2;mix-blend-mode: multiply"/>
            <path d="M349.11,157c-16.64,10.75-38.64,16.8-56.11,7.48-10.9-5.82-18.35-16.92-21.69-28.81s-2.92-24.56-1-36.77c9.17-58.75,55.14-110.11,112.52-125.71,22.8-6.2,47.58-7.12,70.15.53,24.22,8.2,31.34,19.8,10.89,36.94-31.19,26.15-47.25,66-69.59,99.05C382,127.93,367.69,145,349.11,157Z" transform="translate(78.48 31.7)" style="fill: #5878c5;opacity: 0.2;mix-blend-mode: multiply"/>
          </g>
        </g>
        <g>
          <circle id="_Эллипс_4" data-name="&lt;Эллипс&gt;" cx="149.37" cy="260.28" r="16.57" style="fill: url(#Degradado_sin_nombre_61)"/>
          <g style="clip-path: url(#clip-path-2)">
            <path d="M39.07,235.36a13.05,13.05,0,0,1,4.19-7.9,23.16,23.16,0,0,1,7.81-4.61,16.39,16.39,0,0,1,7.67-1.29c4.67.57,8.31,4.18,12.56,6.19a23,23,0,0,0,14.16,1.54,36.43,36.43,0,0,0,13.21-5.68c2.22-1.47,4.45-3.31,5.11-5.89a1.71,1.71,0,0,0-2.36-.48,3.5,3.5,0,0,0-1.38,2.24c-.61,2.55.11,5.27-.41,7.85-.75,3.77-4.13,6.62-7.82,7.68s-7.66.59-11.4-.3a52,52,0,0,1-12.18-4.56c-3.06-1.61-6.06-3.56-9.48-4.07a13.49,13.49,0,0,0-9.4,2.29A17.67,17.67,0,0,0,43.24,236" transform="translate(78.48 31.7)" style="fill: #5878c5;opacity: 0.2;mix-blend-mode: multiply"/>
            <path d="M45.46,235.61A7,7,0,0,1,49,233.28c7.07-2.56,15.67-2.1,21.29,2.91,2,1.79,3.63,4.49,2.89,7.07s-3.25,3.88-5.69,4.6A21.62,21.62,0,0,1,51,246" transform="translate(78.48 31.7)" style="fill: #5878c5;opacity: 0.2;mix-blend-mode: multiply"/>
            <path d="M48,213.66a11.81,11.81,0,0,1,16.6,1.16c1.71,2,2.75,4.44,4.45,6.41a16.42,16.42,0,0,0,9,4.89,17.46,17.46,0,0,0,10-.47,10.67,10.67,0,0,0,6.61-7.23c.75-3.32-.79-7.17-3.87-8.61a1.54,1.54,0,0,0-1.71,0,1.49,1.49,0,0,0-.32.94c-.11,1.85.75,3.62,1,5.45.41,2.75-.8,5.9-3.35,7a9.11,9.11,0,0,1-5.18.2c-2.27-.38-4.74-1-6-3a10.72,10.72,0,0,1-1.17-4.67c-.3-2.57-1-5.24-2.8-7.12A10.09,10.09,0,0,0,66.34,206a15.37,15.37,0,0,0-11.82,2" transform="translate(78.48 31.7)" style="fill: #5878c5;opacity: 0.2;mix-blend-mode: multiply"/>
            <path d="M58.46,242.34a5,5,0,0,0,1.7,1.67c1.69,1.16,3.76,2.15,5.71,1.55a3.91,3.91,0,0,0,2.26-5.67c-1.21-2.12-5-3.74-7.42-3.74C57.82,236.16,57.34,240.25,58.46,242.34Z" transform="translate(78.48 31.7)" style="fill: #5878c5;opacity: 0.2;mix-blend-mode: multiply"/>
            <path d="M78.94,209.3a16.45,16.45,0,0,0-1.66,3.77,5.43,5.43,0,0,0,.4,4,3.31,3.31,0,0,0,3.47,1.66,4.74,4.74,0,0,0,2.73-2.6A18,18,0,0,0,86,209.65a6.86,6.86,0,0,0-.48-4" transform="translate(78.48 31.7)" style="fill: #5878c5;opacity: 0.2;mix-blend-mode: multiply"/>
            <path d="M58.39,203.59A32.82,32.82,0,0,0,59.91,226a31.4,31.4,0,0,0,15.92,15.8c8,3.49,17.13,3.36,25.9,3.16a9.07,9.07,0,0,1-4,1.52C85.92,249,73.48,251.33,62,247.69a23.14,23.14,0,0,1-6.78-3.28c-4.76-3.49-7.45-9.3-8.18-15.16s.31-11.8,1.8-17.51c1.21-4.65,2.8-9.34,5.83-13.07" transform="translate(78.48 31.7)" style="fill: #5878c5;opacity: 0.2;mix-blend-mode: multiply"/>
          </g>
        </g>
        <g>
          <circle id="_Эллипс_5" data-name="&lt;Эллипс&gt;" cx="242.99" cy="380.58" r="23.09" transform="translate(-48.67 153.66) rotate(-22.5)" style="fill: url(#Degradado_sin_nombre_24)"/>
          <g style="clip-path: url(#clip-path-3)">
            <path d="M198.64,390a18.11,18.11,0,0,1,5.83-11,32.56,32.56,0,0,1,10.89-6.43c3.41-1.29,7.07-2.24,10.69-1.8,6.51.79,11.59,5.82,17.51,8.63a32.17,32.17,0,0,0,19.73,2.15,50.82,50.82,0,0,0,18.42-7.93c3.09-2,6.21-4.61,7.12-8.21a2.38,2.38,0,0,0-3.28-.67,4.86,4.86,0,0,0-1.93,3.12c-.85,3.57.15,7.36-.57,10.95-1.05,5.26-5.75,9.23-10.9,10.71s-10.68.82-15.89-.42a72.59,72.59,0,0,1-17-6.36c-4.27-2.24-8.45-5-13.22-5.67A18.77,18.77,0,0,0,213,380.29a24.49,24.49,0,0,0-8.52,10.61" transform="translate(78.48 31.7)" style="fill: #5878c5;opacity: 0.2;mix-blend-mode: multiply"/>
            <path d="M207.54,390.39a9.65,9.65,0,0,1,5-3.25c9.86-3.57,21.85-2.93,29.67,4.05,2.8,2.49,5.06,6.26,4,9.86-1,3.41-4.52,5.41-7.92,6.41a30.17,30.17,0,0,1-23.08-2.6" transform="translate(78.48 31.7)" style="fill: #5878c5;opacity: 0.2;mix-blend-mode: multiply"/>
            <path d="M211,359.79a16.46,16.46,0,0,1,23.14,1.62c2.39,2.73,3.83,6.19,6.21,8.93,3.16,3.65,7.79,5.77,12.51,6.81a24.23,24.23,0,0,0,14-.65c4.41-1.74,8.19-5.46,9.23-10.08s-1.11-10-5.41-12a2.1,2.1,0,0,0-2.37.05,1.94,1.94,0,0,0-.44,1.3c-.16,2.58,1,5,1.42,7.6.57,3.84-1.11,8.22-4.67,9.75-2.24,1-4.81.69-7.21.28-3.17-.54-6.62-1.48-8.37-4.17-1.23-1.89-1.36-4.26-1.62-6.5-.43-3.59-1.4-7.31-3.91-9.92a14,14,0,0,0-6.88-3.67,21.37,21.37,0,0,0-16.47,2.79" transform="translate(78.48 31.7)" style="fill: #5878c5;opacity: 0.2;mix-blend-mode: multiply"/>
            <path d="M225.66,399.77A7,7,0,0,0,228,402.1c2.34,1.61,5.23,3,8,2.15a5.44,5.44,0,0,0,3.14-7.9c-1.67-3-7-5.22-10.34-5.21C224.77,391.15,224.1,396.85,225.66,399.77Z" transform="translate(78.48 31.7)" style="fill: #5878c5;opacity: 0.2;mix-blend-mode: multiply"/>
            <path d="M254.21,353.72A22.24,22.24,0,0,0,251.9,359a7.58,7.58,0,0,0,.55,5.58,4.63,4.63,0,0,0,4.84,2.31c1.75-.43,2.94-2,3.8-3.61a25.09,25.09,0,0,0,2.89-9,9.54,9.54,0,0,0-.67-5.6" transform="translate(78.48 31.7)" style="fill: #5878c5;opacity: 0.2;mix-blend-mode: multiply"/>
            <path d="M225.57,345.74A45.7,45.7,0,0,0,227.68,377a43.82,43.82,0,0,0,22.19,22c11.21,4.87,23.88,4.68,36.1,4.41a12.81,12.81,0,0,1-5.57,2.12c-16.46,3.44-33.8,6.75-49.84,1.68a32.25,32.25,0,0,1-9.44-4.57c-6.64-4.86-10.38-13-11.4-21.13s.42-16.45,2.5-24.41c1.7-6.49,3.9-13,8.13-18.21" transform="translate(78.48 31.7)" style="fill: #5878c5;opacity: 0.2;mix-blend-mode: multiply"/>
          </g>
        </g>
        <g>
          <circle id="_Эллипс_6" data-name="&lt;Эллипс&gt;" cx="280.82" cy="63.85" r="21.28" transform="translate(71.86 113.35) rotate(-16.35)" style="fill: url(#Degradado_sin_nombre_74)"/>
          <g style="clip-path: url(#clip-path-4)">
            <path d="M315.08,87.09a16.74,16.74,0,0,0,.15-11.49,30,30,0,0,0-6-10,21,21,0,0,0-7.85-6.18c-5.62-2.23-12-.41-18-.75a29.69,29.69,0,0,1-16.91-7,46.8,46.8,0,0,1-11.4-14.55c-1.59-3-3-6.47-2.13-9.79a2.19,2.19,0,0,1,2.95.91,4.53,4.53,0,0,1,.18,3.38c-.89,3.26-3.37,5.88-4.38,9.11-1.46,4.71.58,10,4.1,13.47s8.27,5.39,13,6.69a67.06,67.06,0,0,0,16.55,2.35c4.44.08,9-.27,13.2,1.26a17.29,17.29,0,0,1,9.17,8.37A22.56,22.56,0,0,1,310,85.22" transform="translate(78.48 31.7)" style="fill: #5878c5;opacity: 0.2;mix-blend-mode: multiply"/>
            <path d="M251.05,51.62a10.09,10.09,0,0,0,4.24,8.61,17.66,17.66,0,0,0,9.37,3.12c2.55.18,5.37.1,7.31,1.76a2,2,0,0,1,.77,1.14,2.53,2.53,0,0,1-1.11,2.12c-6.24,5.69-14.51,8.5-22.52,11.17" transform="translate(78.48 31.7)" style="fill: #5878c5;opacity: 0.2;mix-blend-mode: multiply"/>
            <path d="M305.47,84.56a8.85,8.85,0,0,0-2.57-4.82c-6.39-7.25-16.38-12-25.79-9.84-3.37.78-6.86,2.83-7.62,6.2-.72,3.19,1.27,6.37,3.57,8.69a27.86,27.86,0,0,0,19.82,8.09" transform="translate(78.48 31.7)" style="fill: #5878c5;opacity: 0.2;mix-blend-mode: multiply"/>
            <path d="M330.07,60.54a17.75,17.75,0,0,0-22.74-10.43c-3.67,1.35-6.82,3.88-10.49,5.24-4.89,1.82-10.36,1.43-15.36,0s-9.64-3.93-12.92-7.86-4.92-9.39-3.52-14.31,6.22-8.88,11.32-8.56c.91.06,2,.39,2.23,1.27a2.19,2.19,0,0,1-.26,1.47c-1.19,2.52-3.59,4.23-5.28,6.45-2.52,3.34-3.2,8.36-.62,11.65,1.63,2.07,4.2,3.13,6.69,4,3.27,1.13,7,2,10.07.39,2.14-1.16,3.49-3.33,4.9-5.32,2.26-3.18,5.11-6.2,8.83-7.37a15,15,0,0,1,8.41.08,23,23,0,0,1,14.15,11.16" transform="translate(78.48 31.7)" style="fill: #5878c5;opacity: 0.2;mix-blend-mode: multiply"/>
            <path d="M282.16,80.3a5.33,5.33,0,0,1-2.39.68c-2.11.21-4.49.08-6-1.43a4.07,4.07,0,0,1,.76-6.3c2.16-1.34,6.46-.9,8.63.29C285.82,75,284.22,79,282.16,80.3Z" transform="translate(78.48 31.7)" style="fill: #5878c5;opacity: 0.2;mix-blend-mode: multiply"/>
            <path d="M292.28,37.62a20.53,20.53,0,0,1-.45,5.26,7,7,0,0,1-2.91,4.27,4.23,4.23,0,0,1-4.93-.26c-1.23-1.12-1.49-3-1.49-4.61a23.34,23.34,0,0,1,1.66-8.58,8.81,8.81,0,0,1,3-4.23" transform="translate(78.48 31.7)" style="fill: #5878c5;opacity: 0.2;mix-blend-mode: multiply"/>
            <path d="M315.39,70.24A42.15,42.15,0,0,1,288.5,80.77a40.42,40.42,0,0,1-27.08-9.85c-8.46-7.43-13.29-18.06-17.87-28.36A11.91,11.91,0,0,0,244,48c3.61,15.07,7.66,30.84,18.19,42.21a30.17,30.17,0,0,0,7.52,6.08c6.67,3.62,14.89,3.55,22.1,1.19s13.55-6.82,19.37-11.69c4.74-4,9.32-8.36,12-13.93" transform="translate(78.48 31.7)" style="fill: #5878c5;opacity: 0.2;mix-blend-mode: multiply"/>
          </g>
        </g>
        <path d="M252.4,71.07A4.07,4.07,0,1,1,248.33,67,4.07,4.07,0,0,1,252.4,71.07Z" transform="translate(78.48 31.7)" style="fill: url(#Degradado_sin_nombre_74-3)"/>
        <circle cx="373.73" cy="127.21" r="3.74" style="fill: url(#Degradado_sin_nombre_74-4)"/>
        <g>
          <path d="M227.27,83A1.25,1.25,0,1,1,226,81.73,1.26,1.26,0,0,1,227.27,83Z" transform="translate(78.48 31.7)" style="fill: #fff"/>
          <circle cx="143.24" cy="302.93" r="1.25" style="fill: #fff"/>
          <circle cx="114.73" cy="246.34" r="1.25" style="fill: #fff"/>
          <circle cx="384.48" cy="145.95" r="1.25" style="fill: #fff"/>
          <path d="M223.06,88.39a.68.68,0,1,1-.67-.67A.67.67,0,0,1,223.06,88.39Z" transform="translate(78.48 31.7)" style="fill: #fff"/>
          <path d="M71.56,197.5a.67.67,0,1,1-.67-.67A.67.67,0,0,1,71.56,197.5Z" transform="translate(78.48 31.7)" style="fill: #fff"/>
          <path d="M189.35,67a.67.67,0,1,1-.67-.67A.67.67,0,0,1,189.35,67Z" transform="translate(78.48 31.7)" style="fill: #fff"/>
          <circle cx="340.65" cy="159.45" r="0.67" style="fill: #fff"/>
          <path d="M231.35,180.76a.67.67,0,0,1-1.34,0,.67.67,0,1,1,1.34,0Z" transform="translate(78.48 31.7)" style="fill: #fff"/>
          <path d="M292.18,107.16a.67.67,0,1,1-.67-.67A.67.67,0,0,1,292.18,107.16Z" transform="translate(78.48 31.7)" style="fill: #fff"/>
          <path d="M288,131.28a.68.68,0,1,1-.67-.67A.67.67,0,0,1,288,131.28Z" transform="translate(78.48 31.7)" style="fill: #fff"/>
          <circle cx="365.72" cy="238.49" r="1.25" style="fill: #fff"/>
          <path d="M373.37,265.58a1.26,1.26,0,1,1-1.26-1.25A1.25,1.25,0,0,1,373.37,265.58Z" transform="translate(78.48 31.7)" style="fill: #fff"/>
          <circle cx="539.27" cy="180.17" r="1.25" style="fill: #fff"/>
          <circle cx="452.31" cy="243.9" r="1.25" style="fill: #fff"/>
          <path d="M284.28,212.2a.67.67,0,1,1-.67-.68A.67.67,0,0,1,284.28,212.2Z" transform="translate(78.48 31.7)" style="fill: #fff"/>
          <path d="M396.16,219.19a.67.67,0,1,1-.67-.67A.67.67,0,0,1,396.16,219.19Z" transform="translate(78.48 31.7)" style="fill: #fff"/>
          <path d="M416.25,56.39a.68.68,0,0,1-.68.67.67.67,0,0,1,0-1.34A.68.68,0,0,1,416.25,56.39Z" transform="translate(78.48 31.7)" style="fill: #fff"/>
          <path d="M452.13,137.12a.67.67,0,1,1-.67-.67A.67.67,0,0,1,452.13,137.12Z" transform="translate(78.48 31.7)" style="fill: #fff"/>
          <path d="M412.38,117.83a.67.67,0,1,1-.67-.67A.67.67,0,0,1,412.38,117.83Z" transform="translate(78.48 31.7)" style="fill: #fff"/>
          <path d="M312.51,270.33a.68.68,0,1,1-.67-.68A.67.67,0,0,1,312.51,270.33Z" transform="translate(78.48 31.7)" style="fill: #fff"/>
          <path d="M329,279.08a.67.67,0,1,1-.67-.67A.67.67,0,0,1,329,279.08Z" transform="translate(78.48 31.7)" style="fill: #fff"/>
          <path d="M358.29,258.49a.68.68,0,1,1-.67-.67A.67.67,0,0,1,358.29,258.49Z" transform="translate(78.48 31.7)" style="fill: #fff"/>
          <path d="M354.12,282.62a.68.68,0,1,1-.68-.68A.67.67,0,0,1,354.12,282.62Z" transform="translate(78.48 31.7)" style="fill: #fff"/>
          <path d="M342.65,309.28a.67.67,0,0,1-.67.68.68.68,0,1,1,0-1.35A.67.67,0,0,1,342.65,309.28Z" transform="translate(78.48 31.7)" style="fill: #fff"/>
          <path d="M211.44,80.62a.67.67,0,1,1-.67-.68A.67.67,0,0,1,211.44,80.62Z" transform="translate(78.48 31.7)" style="fill: #fff"/>
          <path d="M94.33,206.21a.67.67,0,0,1-.67.68.68.68,0,1,1,0-1.35A.67.67,0,0,1,94.33,206.21Z" transform="translate(78.48 31.7)" style="fill: #fff"/>
          <path d="M222.39,55a.68.68,0,1,1-.68-.67A.67.67,0,0,1,222.39,55Z" transform="translate(78.48 31.7)" style="fill: #fff"/>
          <circle cx="314.66" cy="110.28" r="0.67" style="fill: #fff"/>
          <path d="M96.94,271.22a.67.67,0,1,1-.67-.67A.67.67,0,0,1,96.94,271.22Z" transform="translate(78.48 31.7)" style="fill: #fff"/>
          <path d="M134.28,198.17a.68.68,0,1,1-.68-.67A.67.67,0,0,1,134.28,198.17Z" transform="translate(78.48 31.7)" style="fill: #fff"/>
          <path d="M244.93,42.57a.67.67,0,0,1-1.34,0,.67.67,0,1,1,1.34,0Z" transform="translate(78.48 31.7)" style="fill: #fff"/>
          <path d="M229.27,75.7a1.25,1.25,0,1,1,.26-1.75A1.25,1.25,0,0,1,229.27,75.7Z" transform="translate(78.48 31.7)" style="fill: #fff"/>
          <path d="M52.21,191.5a1.25,1.25,0,1,1,.26-1.75A1.24,1.24,0,0,1,52.21,191.5Z" transform="translate(78.48 31.7)" style="fill: #fff"/>
          <path d="M110.16,222.92a1.26,1.26,0,1,1-1.25-1.25A1.25,1.25,0,0,1,110.16,222.92Z" transform="translate(78.48 31.7)" style="fill: #fff"/>
          <path d="M101.82,287.18a1.26,1.26,0,1,1-1.26-1.26A1.25,1.25,0,0,1,101.82,287.18Z" transform="translate(78.48 31.7)" style="fill: #fff"/>
          <path d="M106,228.34a.68.68,0,0,1-.68.67.68.68,0,0,1,0-1.35A.68.68,0,0,1,106,228.34Z" transform="translate(78.48 31.7)" style="fill: #fff"/>
          <path d="M88.13,282.62a.68.68,0,1,1-.67-.68A.67.67,0,0,1,88.13,282.62Z" transform="translate(78.48 31.7)" style="fill: #fff"/>
          <path d="M164.07,433.91a.67.67,0,1,1-.67-.67A.67.67,0,0,1,164.07,433.91Z" transform="translate(78.48 31.7)" style="fill: #fff"/>
          <path d="M191.08,376.2a.67.67,0,1,1-1.34,0,.67.67,0,0,1,1.34,0Z" transform="translate(78.48 31.7)" style="fill: #fff"/>
          <path d="M276.85,281.25a.67.67,0,1,1-.67-.67A.67.67,0,0,1,276.85,281.25Z" transform="translate(78.48 31.7)" style="fill: #fff"/>
          <path d="M180.37,391.22a.68.68,0,0,1,.68-.67.67.67,0,0,1,0,1.34A.68.68,0,0,1,180.37,391.22Z" transform="translate(78.48 31.7)" style="fill: #fff"/>
          <path d="M94.33,220.56a.67.67,0,0,1-.67.67.67.67,0,1,1,0-1.34A.67.67,0,0,1,94.33,220.56Z" transform="translate(78.48 31.7)" style="fill: #fff"/>
          <path d="M119.74,218.52a.68.68,0,1,1-.68-.67A.67.67,0,0,1,119.74,218.52Z" transform="translate(78.48 31.7)" style="fill: #fff"/>
          <path d="M112.16,215.64a1.25,1.25,0,1,1,.26-1.75A1.25,1.25,0,0,1,112.16,215.64Z" transform="translate(78.48 31.7)" style="fill: #fff"/>
          <path d="M234.24,212.55a.67.67,0,0,1-.67.67.67.67,0,1,1,0-1.34A.67.67,0,0,1,234.24,212.55Z" transform="translate(78.48 31.7)" style="fill: #fff"/>
          <path d="M128.45,271.22a.67.67,0,0,1-.67.68.68.68,0,1,1,0-1.35A.67.67,0,0,1,128.45,271.22Z" transform="translate(78.48 31.7)" style="fill: #fff"/>
          <path d="M76.34,356a.68.68,0,1,1-.68-.67A.67.67,0,0,1,76.34,356Z" transform="translate(78.48 31.7)" style="fill: #fff"/>
          <circle cx="334.81" cy="252.97" r="0.67" style="fill: #fff"/>
          <path d="M272.26,161.35a.68.68,0,1,1-.68-.67A.67.67,0,0,1,272.26,161.35Z" transform="translate(78.48 31.7)" style="fill: #fff"/>
          <path d="M297,213.22a.67.67,0,1,1-1.34,0,.67.67,0,1,1,1.34,0Z" transform="translate(78.48 31.7)" style="fill: #fff"/>
          <circle cx="394.17" cy="70.35" r="0.67" style="fill: #fff"/>
          <path d="M337.67,258.18a.67.67,0,1,1-.67-.68A.67.67,0,0,1,337.67,258.18Z" transform="translate(78.48 31.7)" style="fill: #fff"/>
          <path d="M214.89,206.56a1.26,1.26,0,1,1,.26-1.76A1.26,1.26,0,0,1,214.89,206.56Z" transform="translate(78.48 31.7)" style="fill: #fff"/>
          <path d="M272.84,238a1.26,1.26,0,1,1-1.26-1.26A1.25,1.25,0,0,1,272.84,238Z" transform="translate(78.48 31.7)" style="fill: #fff"/>
          <path d="M268.62,243.39a.67.67,0,1,1-.67-.67A.67.67,0,0,1,268.62,243.39Z" transform="translate(78.48 31.7)" style="fill: #fff"/>
          <path d="M257,235.61a.68.68,0,1,1-.68-.67A.67.67,0,0,1,257,235.61Z" transform="translate(78.48 31.7)" style="fill: #fff"/>
          <path d="M277.53,206a.68.68,0,1,1-.68-.67A.67.67,0,0,1,277.53,206Z" transform="translate(78.48 31.7)" style="fill: #fff"/>
          <path d="M270,203.16a1.25,1.25,0,0,1-1.49-2,1.25,1.25,0,1,1,1.49,2Z" transform="translate(78.48 31.7)" style="fill: #fff"/>
          <circle cx="258.27" cy="449.26" r="1.25" style="fill: #fff"/>
          <path d="M268,412.93a1.25,1.25,0,1,1-1.25-1.25A1.25,1.25,0,0,1,268,412.93Z" transform="translate(78.48 31.7)" style="fill: #fff"/>
          <circle cx="283.81" cy="421.67" r="1.25" style="fill: #fff"/>
          <path d="M33.88,190.5a1.26,1.26,0,1,1-1.26-1.26A1.25,1.25,0,0,1,33.88,190.5Z" transform="translate(78.48 31.7)" style="fill: #fff"/>
          <path d="M202.87,415.81a1.25,1.25,0,1,1,.87,1.54A1.25,1.25,0,0,1,202.87,415.81Z" transform="translate(78.48 31.7)" style="fill: #fff"/>
          <circle cx="354.58" cy="376.79" r="1.25" style="fill: #fff"/>
          <path d="M176.83,423a.67.67,0,1,1-.67-.67A.67.67,0,0,1,176.83,423Z" transform="translate(78.48 31.7)" style="fill: #fff"/>
          <path d="M189.51,424a.68.68,0,1,1-.68-.68A.67.67,0,0,1,189.51,424Z" transform="translate(78.48 31.7)" style="fill: #fff"/>
          <path d="M136.68,435.59a.67.67,0,1,1-1.34,0,.67.67,0,1,1,1.34,0Z" transform="translate(78.48 31.7)" style="fill: #fff"/>
          <path d="M210.38,343.35a.67.67,0,1,1-.67-.67A.67.67,0,0,1,210.38,343.35Z" transform="translate(78.48 31.7)" style="fill: #fff"/>
          <path d="M165.69,220.59a.67.67,0,1,1-1.34,0,.67.67,0,0,1,1.34,0Z" transform="translate(78.48 31.7)" style="fill: #fff"/>
          <path d="M207.25,228.34a.67.67,0,1,1-.67-.68A.67.67,0,0,1,207.25,228.34Z" transform="translate(78.48 31.7)" style="fill: #fff"/>
          <path d="M170.08,416.81a.67.67,0,0,1-.67.68.68.68,0,1,1,0-1.35A.67.67,0,0,1,170.08,416.81Z" transform="translate(78.48 31.7)" style="fill: #fff"/>
          <path d="M169.41,372.09a.68.68,0,1,1-.68-.67A.67.67,0,0,1,169.41,372.09Z" transform="translate(78.48 31.7)" style="fill: #fff"/>
          <path d="M162.5,413.94a1.26,1.26,0,1,1,.26-1.76A1.26,1.26,0,0,1,162.5,413.94Z" transform="translate(78.48 31.7)" style="fill: #fff"/>
          <circle cx="466.71" cy="441.43" r="1.25" style="fill: #fff"/>
          <path d="M385.28,415.14a.68.68,0,0,1-.68.67.67.67,0,1,1,0-1.34A.68.68,0,0,1,385.28,415.14Z" transform="translate(78.48 31.7)" style="fill: #fff"/>
          <path d="M324,391.22a.68.68,0,1,1-.67-.67A.67.67,0,0,1,324,391.22Z" transform="translate(78.48 31.7)" style="fill: #fff"/>
          <path d="M358,424.21a.67.67,0,1,1-.67-.67A.67.67,0,0,1,358,424.21Z" transform="translate(78.48 31.7)" style="fill: #fff"/>
          <path d="M398,416.17a.68.68,0,1,1-.67-.68A.67.67,0,0,1,398,416.17Z" transform="translate(78.48 31.7)" style="fill: #fff"/>
          <path d="M415.57,446.33a.67.67,0,1,1-.67-.67A.67.67,0,0,1,415.57,446.33Z" transform="translate(78.48 31.7)" style="fill: #fff"/>
          <circle cx="451.06" cy="472.62" r="1.25" style="fill: #fff"/>
          <circle cx="160.15" cy="186.74" r="1.25" style="fill: #fff"/>
          <circle cx="503" cy="321.69" r="1.25" style="fill: #fff"/>
          <path d="M369.62,446.33a.68.68,0,1,1-.67-.67A.67.67,0,0,1,369.62,446.33Z" transform="translate(78.48 31.7)" style="fill: #fff"/>
          <path d="M358,438.55a.67.67,0,1,1-1.34,0,.67.67,0,1,1,1.34,0Z" transform="translate(78.48 31.7)" style="fill: #fff"/>
          <path d="M378.52,409a.67.67,0,1,1-.67-.67A.67.67,0,0,1,378.52,409Z" transform="translate(78.48 31.7)" style="fill: #fff"/>
          <path d="M371,406.11a1.26,1.26,0,1,1,.25-1.76A1.27,1.27,0,0,1,371,406.11Z" transform="translate(78.48 31.7)" style="fill: #fff"/>
        </g>
      </g>
      <g>
        <polyline points="194.2 117.92 188.79 124.58 206.26 128.04 206.26 121.79" style="fill: #ffc0c8"/>
        <polyline points="267.49 214.79 267.63 223.27 264.88 227.12 259.48 225.34 257.87 222.2 258.64 216.05" style="fill: #fff"/>
        <polygon points="293.99 148.83 292.34 148.34 288.03 147.2 283.04 153.56 289.42 154.96 293.99 152.02 293.99 148.83" style="fill: #fff"/>
        <path d="M69.59,131.68s.9,5.08,5.4,4.35c-.36,1.37.58,7.61,0,8.26s-4.61,5-5.57,4,1-4.09,1-4.09-5.11,3.21-5.44,1.67S67.29,143,67.29,143s-3.94,0-3.78-1.33c.18-1.48,4.45-1.53,4.45-1.53A7.29,7.29,0,0,1,69.59,131.68Z" transform="translate(78.48 31.7)" style="fill: #ffc0c8"/>
        <path d="M43.68,119.19s.52,5.68,5.09,5.59c-.55,1.3-.82,7.08-1.51,7.64s-5.26,4.33-6.07,3.22,1.55-3.9,1.55-3.9-5.5,2.46-5.61.89,2.7-2.52,2.7-2.52-3.89-.56-3.55-1.84c.38-1.44,4.61-.9,4.61-.9A7.28,7.28,0,0,1,43.68,119.19Z" transform="translate(78.48 31.7)" style="fill: #ffc0c8"/>
        <path d="M46.56,115.07l-2.88,4.12s-.44,3.33,1.66,4.73,3.43.86,3.43.86l2.7-4.11Z" transform="translate(78.48 31.7)" style="fill: #fff"/>
        <path d="M71.18,129.35l-1.59,2.33a5.33,5.33,0,0,0,2.16,4.17C73.9,137.17,75,136,75,136l1.91-2.72Z" transform="translate(78.48 31.7)" style="fill: #fff"/>
        <path d="M121.72,99.5S77.35,93,70.82,129.61A12.06,12.06,0,0,0,76.9,134s21.53-19.4,44.8-8.18" transform="translate(78.48 31.7)" style="fill: #fbc155"/>
        <g>
          <path id="_Обтравочный_контур_17" data-name="&lt;Обтравочный контур&gt;" d="M135.49,140.7s17.67-37.28,37.3-39.77,36.24,11.26,37.83,13.9-3,8.45-5.19,8.9-28.11-3.07-28.11-3.07-7.94,36.56-22.7,41.92S135.49,140.7,135.49,140.7Z" transform="translate(78.48 31.7)" style="fill: #6f8bcd"/>
          <g style="clip-path: url(#clip-path-5)">
            <path d="M133.18,140.56c11.18-2.11,20.12-10.19,28.85-17.5s18.81-14.51,30.19-14.24a38.07,38.07,0,0,1,14.37,3.71,29.2,29.2,0,0,1,10,6.55c2.7,3,4.4,7,3.69,11-.84,4.7-4.77,8.18-8.69,10.89a79.62,79.62,0,0,1-44.17,14c-7.78.07-15.85-1.11-22.35-5.37" transform="translate(78.48 31.7)" style="fill: #5878c5;opacity: 0.2;mix-blend-mode: multiply"/>
          </g>
        </g>
        <path d="M123.9,52.42c-6.25,1-18.53,19.5-13.66,30.23s23,11.71,31.27,4.39S150,48,123.9,52.42Z" transform="translate(78.48 31.7)" style="fill: #ffc0c8"/>
        <g>
          <path id="_Обтравочный_контур_18" data-name="&lt;Обтравочный контур&gt;" d="M106.36,90.09s-27,29-5.36,68c25.26,45.66,77.83-1.45,77.83-1.45s-.24,25.91.26,29.31,9.07,1.21,10.82-1,12.91-41.78,5.54-50.82-50.6,8.31-50.6,8.31L130.48,94.63Z" transform="translate(78.48 31.7)" style="fill: #ffd555"/>
          <g style="clip-path: url(#clip-path-6)">
            <polygon points="225.07 169.03 186.39 206.47 227.8 218.13 247.39 206.22 251.69 222.84 270.9 220.85 284.59 166.55 251.69 158.36 225.07 169.03" style="fill: #798ec9"/>
            <polygon points="223.11 169.51 186.39 203.99 191.6 207.94 223.32 174.13 223.11 169.51" style="fill: #8b576b"/>
            <path d="M86.76,111A70.25,70.25,0,0,0,101,147.06a51.89,51.89,0,0,0,17.35,14.87,34.22,34.22,0,0,0,22.36,3.27c9.86-2.15,17.81-9.19,26.83-13.69,2.2-1.1,4.61-2.07,7-1.73a10.19,10.19,0,0,1,4.78,2.29,19.8,19.8,0,0,1,5.62,7.05,34.61,34.61,0,0,1,2.55,9.58,138.35,138.35,0,0,1,1.3,30c-4.72-1-9.59.2-14.26,1.42-9,2.37-18.05,4.79-27.3,5.92-11.63,1.42-23.65.72-34.65-3.3S91.74,191.23,86,181c-7.68-13.6-7.33-30.12-6.77-45.72" transform="translate(78.48 31.7)" style="fill: #5878c5;opacity: 0.2;mix-blend-mode: multiply"/>
          </g>
        </g>
        <path d="M213.86,116.63s6.92-9.66,10.13-9.39-4.48,16.52-4.48,16.52l-8.57-.51A8.07,8.07,0,0,0,213.86,116.63Z" transform="translate(78.48 31.7)" style="fill: #47648f"/>
        <path d="M179.39,190.5v6.13s14.92,4.81,17.48,3.47-7.72-8.53-7.72-8.53S183.62,194.77,179.39,190.5Z" transform="translate(78.48 31.7)" style="fill: #47648f"/>
        <path d="M99.27,113s-34.33-16.15-47.74,8.49c-6.13,2-6.56-5.79-6.56-5.79S61.33,70.8,106.36,90.09" transform="translate(78.48 31.7)" style="fill: #ffd555"/>
        <path d="M109.7,81.73s-4.81-1.91-6.18-9.16,3.89-21,13.73-23.74c.23-9.61,11.9-7.78,15.1-6.18S145.86,55.7,152.5,54.09s.68,12.82-11.91,10.3S127,56.15,127,56.15s-.33,6.41-6.28,7.33c3.21,3.2.69,8.24.69,8.24l-4.58-.92S109.24,69.08,109.7,81.73Z" transform="translate(78.48 31.7)" style="fill: #ff6f79"/>
        <path d="M118.35,71.88s3.11-8.6-2.89-8.38-7.33,11.56-.89,12.9" transform="translate(78.48 31.7)" style="fill: #ffc0c8"/>
        <path d="M138.86,71.88c-1.14,0-3.73,6.56-2.55,7.31s3.53,1.41,4.7,0S141,71.86,138.86,71.88Z" transform="translate(78.48 31.7)" style="fill: #ffa690"/>
      </g>
      <g>
        <polyline points="524.13 139.86 524.74 142.23 529.39 143.81 531.93 139.86 529.13 135.3" style="fill: #fff"/>
        <polygon points="441.9 67.14 447.55 64.8 449.63 70.27 448.29 72.23 443.64 74.26 441.9 67.14" style="fill: #fff"/>
        <path d="M413.3,170.91l5.88,0a6.68,6.68,0,0,1,1,4.73c-.43,2.78-1.89,3.34-1.89,3.34h-5.49" transform="translate(78.48 31.7)" style="fill: #fff"/>
        <path d="M391.39,150.59l5.34-.74a7.9,7.9,0,0,1,.82,8.07c-2.51.48-5.29.74-5.29.74" transform="translate(78.48 31.7)" style="fill: #fff"/>
        <polyline points="410.01 202.78 411.89 210.7 423.4 211.66 426.4 205.28" style="fill: #ffc0c8"/>
        <path d="M331.13,152.84c.69-.79,59.57-4.25,61.56-3.21s3.56,9,.22,10.16-54.46,9.31-54.46,9.31S322.37,162.79,331.13,152.84Z" transform="translate(78.48 31.7)" style="fill: #91e08d"/>
        <path d="M397.55,157.92s3.63,6.52,5.63,6-.65-4.93-.65-4.93,10.19.61,10.74-.68-5.84-1.73-5.84-1.73,5.81-1.55,5.39-3.05-5.08-.22-5.08-.22,3.39-2.48,2.46-3.83-4.5,1.94-4.5,1.94,1.34-4.21.2-4.59-3.93,3.29-3.93,3.29a4.54,4.54,0,0,0-5.24-.22C398.12,151.86,397.55,157.92,397.55,157.92Z" transform="translate(78.48 31.7)" style="fill: #ffc0c8"/>
        <path d="M340.88,217.63c6.5-1.49,18.28-21.62,12.5-32.59s-24.9-10.89-33.11-2.7S313.79,223.83,340.88,217.63Z" transform="translate(78.48 31.7)" style="fill: #ffc0c8"/>
        <path d="M317.55,197.65c1.19-.08,3.51-7.12,2.23-7.83s-3.79-1.26-4.94.29S315.29,197.8,317.55,197.65Z" transform="translate(78.48 31.7)" style="fill: #ffa690"/>
        <path d="M356,189.85s2.85,3.51,3.08,11.12c.43,14.1-8.92,24.62-8.92,24.62L345.09,223,338,230.06s-13.4,1.35-21.45-6.15a14.13,14.13,0,0,1-3.66-16.35s12.16-6.68,28.06,1.51C339.16,192,356,189.85,356,189.85Z" transform="translate(78.48 31.7)" style="fill: #8c4579"/>
        <g>
          <path id="_Обтравочный_контур_19" data-name="&lt;Обтравочный контур&gt;" d="M361.3,93.24s50.91-27.29,90,9.86c0,4.28-5.08,7.43-5.08,7.43S392,92.8,366.68,121C360.38,111.68,361.3,93.24,361.3,93.24Z" transform="translate(78.48 31.7)" style="fill: #426c76"/>
          <g style="clip-path: url(#clip-path-7)">
            <path d="M334.75,104c23-14.28,52.26-17.33,78.38-10.09,10.19,2.82,20.11,7.21,28.15,14.07s14.1,16.39,15.5,26.87c.4,2.92,0,6.6-2.72,7.73-1.9.78-4-.1-5.93-.91-16.56-7.07-34.73-9.19-52.52-12s-35.93-6.62-51-16.45" transform="translate(78.48 31.7)" style="fill: #5878c5;opacity: 0.2;mix-blend-mode: multiply"/>
          </g>
        </g>
        <g>
          <path id="_Обтравочный_контур_20" data-name="&lt;Обтравочный контур&gt;" d="M328.71,173.08c0-1.07-34.52-24.56,19.31-71.42C327.52,87.38,325.15,74.32,323.61,64,321.53,50,362,33.67,364.48,33.7s4.18,8.24,2.38,10-23.05,21.12-23.05,21.12,43.88,22.86,41.55,44c-1.43,13-9.33,16.14-13.6,20.79-11,12-13.56,48.23-13.56,48.23Z" transform="translate(78.48 31.7)" style="fill: #a4f69e"/>
          <g style="clip-path: url(#clip-path-8)">
            <path d="M321.69,53.76a37.66,37.66,0,0,0,.24,15.78A54.74,54.74,0,0,0,371.51,113a81.59,81.59,0,0,0,22.07-1.89c7.31-1.48,14.9-3.71,20.06-9.09,4.65-4.85,6.72-11.76,6.75-18.48s-1.79-13.32-4.07-19.64c-2.14-5.94-4.73-11.81-8.63-16.78C398.44,35.3,383,29.8,368.9,26.41c-11.46-2.76-24.39.64-33.7,7.64C328.72,38.92,323.46,45.73,321.69,53.76Z" transform="translate(78.48 31.7)" style="fill: #47848f"/>
            <path d="M344.35,99.8l-4.33,4s26.12,14.7,45.43,10c1.95-3-.08-6.66-.08-6.66S364.41,110.84,344.35,99.8Z" transform="translate(78.48 31.7)" style="fill: #fff"/>
            <path d="M325.66,45.07C324,66.39,336,88.15,354.93,98.13c5.16,2.73,10.77,4.64,15.59,7.92-4.2,3.85-9.69,5.91-15,8-8.1,3.17-16.24,6.66-22.88,12.27-13.43,11.34-18.8,29.78-19.5,47.34C302,154.81,297.67,131.91,302,110.47c3.81-18.86,7.79-44,18.67-59.93" transform="translate(78.48 31.7)" style="fill: #5878c5;opacity: 0.2;mix-blend-mode: multiply"/>
          </g>
        </g>
        <path d="M368.06,33.74s2.19,4.55,1.75,6.79a10.9,10.9,0,0,0,6.77-3.31s-.36-21.91-3.42-21.94S368.06,33.74,368.06,33.74Z" transform="translate(78.48 31.7)" style="fill: #695e68"/>
        <path d="M453.37,106.25s-2.3,4.5-4.35,5.51a10.94,10.94,0,0,0,6.73,3.39s17.23-13.55,15.4-16S453.37,106.25,453.37,106.25Z" transform="translate(78.48 31.7)" style="fill: #695e68"/>
        <path d="M354.36,160.45c.84-.63,59.18,8,60.92,9.46s1.64,9.52-1.87,10-55.21-2-55.21-2S343.75,168.4,354.36,160.45Z" transform="translate(78.48 31.7)" style="fill: #a4f69e"/>
        <path d="M341.17,194.86s-1.63,7.22,3.55,8.62c6.09,1.65,5.46-9.64-1.39-10.65" transform="translate(78.48 31.7)" style="fill: #ffc0c8"/>
        <path d="M347.9,221.92a9.29,9.29,0,0,1-5.89,9.31c1.32-2.74,1.58-10.93,1.58-10.93" transform="translate(78.48 31.7)" style="fill: #8c4579"/>
        <path d="M312.89,207.56s5.05-6.88,16.62-6.1C324,203.28,319,210.67,319,210.67" transform="translate(78.48 31.7)" style="fill: #8c4579"/>
        <path d="M418.33,179s2.23,7.13,4.29,7,.38-4.95.38-4.95,9.85,2.67,10.65,1.52-5.36-2.88-5.36-2.88,6-.34,5.9-1.89-4.93-1.25-4.93-1.25,3.83-1.74,3.2-3.25-4.81,1-4.81,1,2.18-3.85,1.14-4.45-4.53,2.42-4.53,2.42a4.54,4.54,0,0,0-5.08-1.3C420.13,173.21,418.33,179,418.33,179Z" transform="translate(78.48 31.7)" style="fill: #ffc0c8"/>
      </g>
      <g>
        <path d="M229.53,282.66s5.88-13,4.78-16.06-11.63-7.1-12.81-6.79.83,2.49.83,2.49-2.2.41-2.3,1.2c-.16,1.34,2.52,1.67,2.52,1.67S221,266,221.31,267c.68,1.9,2.8.34,5.58,1.81-5.21,2.66-6.16,10.47-5.89,12C225.33,279,229.53,282.66,229.53,282.66Z" transform="translate(78.48 31.7)" style="fill: #954f62"/>
        <g>
          <polyline points="162.53 467.3 158.5 473.15 164.87 478.92 169.66 475.48" style="fill: #fff"/>
          <polyline points="136.88 417.18 128.74 417.52 128.07 424.78 134.94 426.16" style="fill: #fff"/>
          <polyline points="248.02 319.33 245.06 327.09 260.63 335.4 261.9 325.25" style="fill: #954f62"/>
          <path d="M98.54,315.07s3,9.37,1.71,12.14c-.9,2-3.17-3-3.17-3s-4,9.86-5.61,9.43.84-6.95.84-6.95-4,5.8-5.29,5.17,2.16-6.49,2.16-6.49-4.46,3.64-5.47,2c-.83-1.35,3.27-4.16,3.27-4.16s-4.1,1.43-4.37-.2,5.16-3.53,5.16-3.53,3.16-6.31,5.34-8.79A6.44,6.44,0,0,0,98.54,315.07Z" transform="translate(78.48 31.7)" style="fill: #954f62"/>
          <g>
            <path id="_Обтравочный_контур_21" data-name="&lt;Обтравочный контур&gt;" d="M159.39,296s-35.92-25.89-66.61,13.54a7.61,7.61,0,0,0,6.41,6.4s45.1-26.45,55.33,5.14" transform="translate(78.48 31.7)" style="fill: #d14c62"/>
            <g style="clip-path: url(#clip-path-9)">
              <path d="M93.64,329c6-11.72,17.17-19.93,28.73-26.25,7-3.84,14.46-7.17,22.36-8.52s16.36-.57,23.31,3.41a21.12,21.12,0,0,1,9.18,9.83,14.36,14.36,0,0,1-.82,13.13c-1.68,2.57-4.25,4.41-6.82,6.09a144.79,144.79,0,0,1-45.39,19.71c-10.54,2.56-22.57,3.65-31.41-2.64" transform="translate(78.48 31.7)" style="fill: #5878c5;opacity: 0.2;mix-blend-mode: multiply"/>
            </g>
          </g>
          <path d="M201.47,271.66c1.95-.5,4-1.31,5.13-3s1-4.36-.83-5.28a6,6,0,0,0-5-9.47,9.18,9.18,0,0,0-12.41-8.79c-1.86-1.87-3.87-3.84-6.45-4.4s-5.81,1-6,3.63a5.75,5.75,0,0,0-8.88,5.6,4.57,4.57,0,0,0-5.18,2.24,9.17,9.17,0,0,0-.78,6,4.69,4.69,0,0,0-4.45,3.62,9.31,9.31,0,0,0,.78,6,6.74,6.74,0,0,0-2.74,5c-.36,3.79,1.7,7.54,4.68,9.92a21.51,21.51,0,0,0,10.54,4.07,23,23,0,0,0,10.73-.69,13.13,13.13,0,0,0,7.93-6.92" transform="translate(78.48 31.7)" style="fill: #372936"/>
          <path d="M163.7,269.05c1.68-6.51,22.28-17.79,33.17-11.67s10.26,25.38,1.78,33.41S156.69,296.15,163.7,269.05Z" transform="translate(78.48 31.7)" style="fill: #954f62"/>
          <g>
            <path id="_Обтравочный_контур_22" data-name="&lt;Обтравочный контур&gt;" d="M152.89,361.09s-16,38.44-23,47.13c-8.53,10.53-33,34.72-35.36,36.32-5.07,3.37-13.45-3.64-12.77-8.22.31-2.13,26.93-33.64,28.22-36.67,2.87-6.69,11-46,11-46Z" transform="translate(78.48 31.7)" style="fill: #963f67"/>
            <g style="clip-path: url(#clip-path-10)">
              <path d="M138.15,394.57c5.65-4.13,11.09-8.7,15.12-14.42s6.56-12.73,5.85-19.68a12.63,12.63,0,0,0-3.16-7.74c-4.24-4.29-11.38-3.07-17.07-1.06a96.14,96.14,0,0,0-45.23,32.92c-4.51,6.1-12.42,16.7-10.87,24.76,2.3,11.87,14.74,7.07,22.1,4A164.47,164.47,0,0,0,138.15,394.57Z" transform="translate(78.48 31.7)" style="fill: #5878c5;opacity: 0.2;mix-blend-mode: multiply"/>
            </g>
          </g>
          <g>
            <path id="_Обтравочный_контур_23" data-name="&lt;Обтравочный контур&gt;" d="M159.39,296s-13.71,14-38,45.65c-9.4,12.24-16.8,43.72-16.8,43.72s-45.53-2.57-47.8-1-3.59,8.27-1.31,10.75,40.36,14.16,54.84,10.58C128.1,401.23,152,367.56,152,367.56s32.87-22.46,36.53-58.64A41,41,0,0,0,159.39,296Z" transform="translate(78.48 31.7)" style="fill: #e34c62"/>
            <g style="clip-path: url(#clip-path-11)">
              <path d="M162.89,374.36a123.75,123.75,0,0,1-45.11-31.62c-3.79-4.2-7.46-8.79-12.58-11.19-5.25,9.12.26,21.83-5.5,30.63-2.81,4.3-7.87,6.71-12.94,7.48s-10.25.12-15.35-.54L47.18,366c-1.89-.24-4-.44-5.52.69-2.17,1.6-2,4.83-1.55,7.48a126.16,126.16,0,0,0,6.24,22.8,33.58,33.58,0,0,0,5.49,10.25c3.66,4.28,9,6.77,14.52,8.11s11.14,1.64,16.74,2.3c13.23,1.57,27,5.09,39.58.84,8.83-3,16.1-9.53,21.53-17.11s9.19-16.19,12.87-24.75" transform="translate(78.48 31.7)" style="fill: #a34b70"/>
              <path d="M158.9,369.63c-.62-.53-34.83-15.28-41.22-35.59-3.77,8.71-4.13,11.63-4.13,11.63s15,24.82,41,26.39A37.16,37.16,0,0,0,158.9,369.63Z" transform="translate(78.48 31.7)" style="fill: #ffd555"/>
            </g>
          </g>
          <path d="M202.46,259.64a5.26,5.26,0,0,1-3.58,5.5,8.3,8.3,0,0,1-6.84-1,3.45,3.45,0,0,1-1.36,4.28,4.55,4.55,0,0,1-4.68-.17,6.82,6.82,0,0,1-2.76-4,8.53,8.53,0,0,1-11.12-3.55,4.57,4.57,0,0,1-.49-3.36c.56-1.84,2.61-2.75,4.46-3.29,6.91-2,14.52-2.15,21.16.63" transform="translate(78.48 31.7)" style="fill: #372936"/>
          <path d="M167.62,273.77c-2.15.61-4.76.41-6.22-1.29a6.44,6.44,0,0,1-1.13-4.82c.45-4.71,4.84-11.47,10.4-9.63,5,1.64,5.23,6.78.57,8.8C173.51,269.86,170.57,272.93,167.62,273.77Z" transform="translate(78.48 31.7)" style="fill: #372936"/>
          <path d="M161.18,266.69a6,6,0,0,0-1,3.56,7.83,7.83,0,0,0,.21,1.53,6.72,6.72,0,0,0,2.51,3.88C168.65,279.73,167.34,257.61,161.18,266.69Z" transform="translate(78.48 31.7)" style="fill: #954f62"/>
          <path d="M191.4,273.65c1.24.15,1.73,7.58.7,8.78s-4.7,1-5.09-.62S190.17,273.5,191.4,273.65Z" transform="translate(78.48 31.7)" style="fill: #82374f"/>
          <path d="M88.36,446.36l-8.84,7.47s2.14,13.32-.43,14.57-7.4-20.09-7.4-20.09l8.65-8.18A11.09,11.09,0,0,0,88.36,446.36Z" transform="translate(78.48 31.7)" style="fill: #3a4454"/>
          <path d="M51.22,394s-1.79-5.9,1.06-8.73c-10.81-1.82-15-2.84-15-2.84s-6.1,17.15-4.29,18.71,8-9.57,8-9.57Z" transform="translate(78.48 31.7)" style="fill: #3a4454"/>
        </g>
        <path d="M117.28,362.38s-6.78,15-3,18.5,14.46-3.5,15.21-10.67C124.37,366.48,117.28,362.38,117.28,362.38Z" transform="translate(78.48 31.7)" style="fill: #5878c5;opacity: 0.2;mix-blend-mode: multiply"/>
        <path d="M161.31,303.7s15.87-10.15,26.42,7c2.84-8.45-22.16-26.06-34.84-11.79" transform="translate(78.48 31.7)" style="fill: #58539f"/>
        <g>
          <path id="_Обтравочный_контур_24" data-name="&lt;Обтравочный контур&gt;" d="M146.51,329.94s21.52,22.83,37.61-3.77l3.73-1S186.33,348,166.24,351.4c-16.06,2.74-24.05-16.4-24.05-16.4" transform="translate(78.48 31.7)" style="fill: #58539f"/>
          <g style="clip-path: url(#clip-path-12)">
            <path d="M159,330.77a4.4,4.4,0,0,0,1.8,4,11,11,0,0,0,4.16,1.79c6,1.55,12.4,1.93,18.3.08s11.19-6.14,13.35-11.93a7.87,7.87,0,0,0,.3-5.66c-1-2.41-3.63-3.68-6.15-4.32a24.79,24.79,0,0,0-24.2,7.54" transform="translate(78.48 31.7)" style="fill: #5878c5;opacity: 0.2;mix-blend-mode: multiply"/>
          </g>
        </g>
        <g>
          <path id="_Обтравочный_контур_25" data-name="&lt;Обтравочный контур&gt;" d="M178.89,303.7s31.25,20.57,41.33-22.5c6.64-4.27,10.28,1.49,10.28,1.49s6.66,64.17-61.1,39.39" transform="translate(78.48 31.7)" style="fill: #e34c62"/>
          <g style="clip-path: url(#clip-path-13)">
            <path d="M246.4,282.61c-2.22,12.06-10.31,22.62-20.7,29.12s-22.91,9.14-35.16,8.82c-4.3-.11-8.65-.56-12.87.22s-8.46,3.07-10.29,7c-2.16,4.62-.27,10.4,3.41,13.93s8.79,5.19,13.83,6a56.23,56.23,0,0,0,65-47.35" transform="translate(78.48 31.7)" style="fill: #5878c5;opacity: 0.2;mix-blend-mode: multiply"/>
          </g>
        </g>
        <g>
          <path id="_Обтравочный_контур_26" data-name="&lt;Обтравочный контур&gt;" d="M164.56,298.12s-5.75-10.49-18.1-7.65S115,326.61,119.82,335.13s14.07,10.45,20.47,5.65S169.72,310.34,164.56,298.12Z" transform="translate(78.48 31.7)" style="fill: #58539f"/>
          <g style="clip-path: url(#clip-path-14)">
            <path d="M118.43,313a39.79,39.79,0,0,0-1.71,10.9c.12,3.69,1.4,7.5,4.23,9.88,3,2.53,7.33,3,11.14,2.12s7.19-3.13,10.26-5.57a64.64,64.64,0,0,0,12.44-13.2c3.78-5.36,6.86-11.43,12-15.45a65,65,0,0,1-29.49,50.66c-2.91,1.85-6.17,3.52-9.62,3.35-3.79-.19-7.19-2.64-9.45-5.69s-3.56-6.7-4.83-10.28" transform="translate(78.48 31.7)" style="fill: #5878c5;opacity: 0.2;mix-blend-mode: multiply"/>
          </g>
        </g>
        <path d="M149.68,287.37s-11.52-.43-17.56,7.89,2.81,17.79,2.81,17.79,18.93-3.22,22.41-7S161.17,291.71,149.68,287.37Z" transform="translate(78.48 31.7)" style="fill: #6661b1"/>
        <path d="M144.27,306.64s-7.14,11.8-8.38,16,3.59,5.51,6.83,2.09,11.08-18.1,11.08-18.1" transform="translate(78.48 31.7)" style="fill: #6661b1"/>
        <path d="M133.6,307.15s-5.58,14.77-7.51,16.48-3.72.45-4.59-3,9.77-17,9.77-17" transform="translate(78.48 31.7)" style="fill: #6661b1"/>
      </g>
      <g>
        <path d="M413.8,317.48a15.83,15.83,0,0,1,19.64,4c3.33,4.3,4.14,10,4.17,15.48.07,12.67-3.23,26.25,2.77,37.41,2.45,4.56,6.33,8.36,8,13.28,2.68,8.07-1.55,17.08-7.86,22.78-4.89,4.42-11.68,7.51-18,5.76-5.74-1.59-9.74-6.63-14.75-9.84-7.2-4.61-14.85-.12-24.35-8.66-10.85-9.75-14.52-27.53-14.88-35s6.88-15.18,12.07-20.51c6.52-6.69,16.55-8.27,25.86-9" transform="translate(78.48 31.7)" style="fill: #57c1ff"/>
        <path d="M418.85,387.62l4.55,2.26a6.5,6.5,0,0,1,.65,5.92c-1.34,3.13-3.39,1.64-3.39,1.64l-5.09-2.68" transform="translate(78.48 31.7)" style="fill: #fff"/>
        <path d="M395.49,275.3l5.08-2.46a5.43,5.43,0,0,1,5.18,5.06l-4.31,3.35Z" transform="translate(78.48 31.7)" style="fill: #fff"/>
        <path d="M274,328s-7.49,4.3-9.2,4.31-9.92-18-9.92-18,6-.24,10.35,9.07a19.42,19.42,0,0,1,6.24-2.11S270.53,326,274,328Z" transform="translate(78.48 31.7)" style="fill: #ffc0c8"/>
        <path d="M266.79,331.68s-7.74-8.71-6-14.72c-2.7-3.76-6.18-4.26-7-3.28s9.38,19.14,9.38,19.14A3,3,0,0,0,266.79,331.68Z" transform="translate(78.48 31.7)" style="fill: #695e68"/>
        <path d="M321.5,410.73s7.12,4.89,7.87,6.42-11.94,16.76-11.94,16.76-2.81-5.31,3.69-13.26a19.27,19.27,0,0,1-4.61-4.71S321.25,414.75,321.5,410.73Z" transform="translate(78.48 31.7)" style="fill: #ffc0c8"/>
        <path d="M328,415.66s-4.5,10.75-10.66,11.78c-2.22,4.07-1.16,7.42.08,7.75s13.18-16.75,13.18-16.75A2.94,2.94,0,0,0,328,415.66Z" transform="translate(78.48 31.7)" style="fill: #695e68"/>
        <g>
          <path id="_Обтравочный_контур_27" data-name="&lt;Обтравочный контур&gt;" d="M384.49,329.44s-9.49-28.88,20-49.09a9.29,9.29,0,0,0-8-6.61s-45.09,20.89-29.2,62.34" transform="translate(78.48 31.7)" style="fill: #5e72af"/>
          <g style="clip-path: url(#clip-path-15)">
            <path d="M373.4,270.41a57.33,57.33,0,0,0,13.49,75.21c-14.81,3.19-29.9-4.74-41-15-5.75-5.34-10.92-11.5-13.91-18.76s-3.6-15.72-.41-22.89" transform="translate(78.48 31.7)" style="fill: #5878c5;opacity: 0.2;mix-blend-mode: multiply"/>
          </g>
        </g>
        <g>
          <path id="_Обтравочный_контур_28" data-name="&lt;Обтравочный контур&gt;" d="M318,350.09s-25.54,12.74-28.94,31.46c-3.8,21,28.13,36.62,28.13,36.62s5.93-1.62,5.35-7.54c-7.39-6.73-20.61-28.43,9.92-35" transform="translate(78.48 31.7)" style="fill: #de77bb"/>
          <g style="clip-path: url(#clip-path-16)">
            <path d="M277.17,354.91a115,115,0,0,0,27.17,21.68c10.54,6.06,23.74,10.4,34.62,5a7,7,0,0,0,3.34-2.85c1-1.9.33-4.2-.41-6.2C337.48,360.62,329.3,349.76,318,344s-25.83-5.89-36.25,1.39" transform="translate(78.48 31.7)" style="fill: #5878c5;opacity: 0.2;mix-blend-mode: multiply"/>
          </g>
        </g>
        <path d="M426.47,338.09c-1.26,5.77-19,16.38-28.75,11.37s-9.88-21.95-2.71-29.3S431.7,314,426.47,338.09Z" transform="translate(78.48 31.7)" style="fill: #ffc0c8"/>
        <path d="M423.4,389.88s1.79,5.8-2.74,7.56c1.07,1.06,3.68,6.64,4.58,6.91s6.94,2.14,7.29.71-3.11-3.21-3.11-3.21,6.41.2,5.88-1.4-3.68-1.38-3.68-1.38,3.61-2.13,2.76-3.25-4.91,1-4.91,1A7.75,7.75,0,0,0,423.4,389.88Z" transform="translate(78.48 31.7)" style="fill: #ffc0c8"/>
        <path d="M409.23,338s8.79-2.72,8.28,3.3-12,6.81-13,.28" transform="translate(78.48 31.7)" style="fill: #ffc0c8"/>
        <path d="M409,323.3c-.06,1.05-6.27,3.18-6.91,2.05s-1.16-3.35.2-4.38S409.12,321.29,409,323.3Z" transform="translate(78.48 31.7)" style="fill: #ffa690"/>
        <g>
          <path id="_Обтравочный_контур_29" data-name="&lt;Обтравочный контур&gt;" d="M384.49,329.44s-21.42-13.32-55.18,13c-.29-10.28-4.1-32-15.73-35.9-11.9-4-43,12.44-43.75,14s2.05,10.51,5.28,10.71,29.95-4.4,29.95-4.4-.86,39.18,10.81,49.68c10.69,9.6,21.8-1.05,21.8-1.05s33.33-22.84,53.82-23.94Z" transform="translate(78.48 31.7)" style="fill: #5878c5"/>
          <g style="clip-path: url(#clip-path-17)">
            <path d="M339.34,328.19c-1.57,1.79-10,14.27-10,14.27s-6.79,21.17,13.18,36.78c-25.41,26.45-51.75-38.15-51.75-38.15S240,329.82,262.11,311.41s62.69-9.49,62.69-9.49Z" transform="translate(78.48 31.7)" style="fill: #ff7bc3"/>
            <path d="M306.71,321.29c3.83,1.3,6.16,5.31,6.91,9.28s.25,8.06.27,12.1c.05,9.91,4.28,20.85,13.47,24.57,6.37,2.57,13.65,1.13,20.12-1.17s12.77-5.44,19.59-6.25c-2.84,16.26-17.07,29.85-33.44,31.94s-33.57-7.5-40.4-22.52c-2.93-6.47-4.88-12.55-8.89-18.46-2.62-3.87-5.38-7.88-4.66-12.81C281.09,328.35,297.63,318.21,306.71,321.29Z" transform="translate(78.48 31.7)" style="fill: #5878c5;opacity: 0.2;mix-blend-mode: multiply"/>
          </g>
        </g>
        <path d="M426,317.72a55.53,55.53,0,0,0-12,8.63,20.95,20.95,0,0,0-5.59,23.26,32.72,32.72,0,0,0,5.67,10.19c5.77-4.09,11-9.15,14.35-15.39s4.67-13.75,2.62-20.52" transform="translate(78.48 31.7)" style="fill: #57c1ff"/>
        <g>
          <path id="_Обтравочный_контур_30" data-name="&lt;Обтравочный контур&gt;" d="M391.49,351.58s.31,22.73,28.55,35.56a10.16,10.16,0,0,1-3.23,9.39s-38.89-3.06-44.48-43.6" transform="translate(78.48 31.7)" style="fill: #5878c5"/>
          <g style="clip-path: url(#clip-path-18)">
            <path d="M369.07,359.63c7.73,9.77,16.64,18.8,27.28,25.28s23.16,10.32,35.58,9.28c-6.86,6.58-14.31,13.46-23.67,15-6.58,1.1-13.33-.6-19.55-3A86.15,86.15,0,0,1,358,385.77" transform="translate(78.48 31.7)" style="fill: #5878c5;opacity: 0.2;mix-blend-mode: multiply"/>
          </g>
        </g>
        <path d="M400.57,272.84s5.56-7,9.91-8.76,8.91-1.94,9.18-1.19c.53,1.42-3,2.56-5.1,2.87,3.42.15,4.45,1.71,4,2.43s-4.2.07-4.2.07,3.16,1.68,2.34,2.75-4-.93-4-.93-2.07,2.07-2.39,3.3c1.64-1.34,2.92-.95,3.19-.12s-5.36,5-7.78,4.64C405.75,277.9,403.68,273,400.57,272.84Z" transform="translate(78.48 31.7)" style="fill: #ffc0c8"/>
      </g>
    </g>
  </g>
</svg>
